<svg width="118" height="118" viewBox="0 0 118 118" fill="none" xmlns="http://www.w3.org/2000/svg">
<g filter="url(#filter0_d_2_7422)">
<rect x="24" y="14" width="70" height="70" rx="10" fill="white"/>
<path d="M44 49V47.5H42.5V49H44ZM44 60H42.5V61.5H44V60ZM44 50.5H53V47.5H44V50.5ZM54.5 52V57H57.5V52H54.5ZM53 58.5H44V61.5H53V58.5ZM45.5 60V49H42.5V60H45.5ZM54.5 57C54.5 57.8284 53.8284 58.5 53 58.5V61.5C55.4853 61.5 57.5 59.4853 57.5 57H54.5ZM53 50.5C53.8284 50.5 54.5 51.1716 54.5 52H57.5C57.5 49.5147 55.4853 47.5 53 47.5V50.5Z" fill="black"/>
<path d="M56 38H44V51" stroke="black" stroke-width="3"/>
<path d="M61 49H70C71.6569 49 73 50.3431 73 52V57C73 58.6569 71.6569 60 70 60H61V49Z" stroke="black" stroke-width="3"/>
<path d="M73 38H61V51" stroke="black" stroke-width="3"/>
</g>
<defs>
<filter id="filter0_d_2_7422" x="0" y="0" width="118" height="118" filterUnits="userSpaceOnUse" color-interpolation-filters="sRGB">
<feFlood flood-opacity="0" result="BackgroundImageFix"/>
<feColorMatrix in="SourceAlpha" type="matrix" values="0 0 0 0 0 0 0 0 0 0 0 0 0 0 0 0 0 0 127 0" result="hardAlpha"/>
<feMorphology radius="6" operator="erode" in="SourceAlpha" result="effect1_dropShadow_2_7422"/>
<feOffset dy="10"/>
<feGaussianBlur stdDeviation="15"/>
<feColorMatrix type="matrix" values="0 0 0 0 0.1375 0 0 0 0 0.0965937 0 0 0 0 0.0171875 0 0 0 0.15 0"/>
<feBlend mode="normal" in2="BackgroundImageFix" result="effect1_dropShadow_2_7422"/>
<feBlend mode="normal" in="SourceGraphic" in2="effect1_dropShadow_2_7422" result="shape"/>
</filter>
</defs>
</svg>
