<svg width="118" height="118" viewBox="0 0 118 118" fill="none" xmlns="http://www.w3.org/2000/svg">
<g filter="url(#filter0_d_2_7435)">
<rect x="24" y="14" width="70" height="70" rx="10" fill="white"/>
<g clip-path="url(#clip0_2_7435)">
<rect width="5" height="12" rx="2.5" transform="matrix(-0.707107 -0.707107 -0.707107 0.707107 56 56)" fill="#4633B9"/>
<rect width="5" height="12" rx="2.5" transform="matrix(-0.707107 -0.707107 -0.707107 0.707107 56 56)" fill="#1767F9"/>
<rect width="5" height="12" rx="2.5" transform="matrix(-0.707107 -0.707107 -0.707107 0.707107 56 56)" fill="#4BB1BC"/>
<rect width="5" height="12" rx="2.5" transform="matrix(-0.707107 -0.707107 -0.707107 0.707107 56 56)" fill="url(#paint0_radial_2_7435)"/>
<rect width="5" height="12" rx="2.5" transform="matrix(-0.707107 -0.707107 -0.707107 0.707107 56 56)" fill="url(#paint1_radial_2_7435)" fill-opacity="0.5"/>
<rect width="5" height="12" rx="2.5" transform="matrix(-0.707107 -0.707107 -0.707107 0.707107 56 56)" fill="url(#paint2_linear_2_7435)"/>
<path fill-rule="evenodd" clip-rule="evenodd" d="M46.6359 58.6359C45.861 57.861 44.7845 57.4664 43.6924 57.5568C42.813 57.6296 41.988 58.012 41.3641 58.6359L35.5147 64.4853C33.5621 66.4379 33.5621 69.6037 35.5147 71.5564C37.4673 73.509 40.6332 73.509 42.5858 71.5563L48.4352 65.707C49.0591 65.083 49.4415 64.258 49.5143 63.3787C49.6047 62.2866 49.21 61.21 48.4352 60.4352L46.6359 58.6359Z" fill="#4633B9"/>
<path fill-rule="evenodd" clip-rule="evenodd" d="M46.6359 58.6359C45.861 57.861 44.7845 57.4664 43.6924 57.5568C42.813 57.6296 41.988 58.012 41.3641 58.6359L35.5147 64.4853C33.5621 66.4379 33.5621 69.6037 35.5147 71.5564C37.4673 73.509 40.6332 73.509 42.5858 71.5563L48.4352 65.707C49.0591 65.083 49.4415 64.258 49.5143 63.3787C49.6047 62.2866 49.21 61.21 48.4352 60.4352L46.6359 58.6359Z" fill="#1767F9"/>
<path fill-rule="evenodd" clip-rule="evenodd" d="M46.6359 58.6359C45.861 57.861 44.7845 57.4664 43.6924 57.5568C42.813 57.6296 41.988 58.012 41.3641 58.6359L35.5147 64.4853C33.5621 66.4379 33.5621 69.6037 35.5147 71.5564C37.4673 73.509 40.6332 73.509 42.5858 71.5563L48.4352 65.707C49.0591 65.083 49.4415 64.258 49.5143 63.3787C49.6047 62.2866 49.21 61.21 48.4352 60.4352L46.6359 58.6359Z" fill="#4BB1BC"/>
<path fill-rule="evenodd" clip-rule="evenodd" d="M46.6359 58.6359C45.861 57.861 44.7845 57.4664 43.6924 57.5568C42.813 57.6296 41.988 58.012 41.3641 58.6359L35.5147 64.4853C33.5621 66.4379 33.5621 69.6037 35.5147 71.5564C37.4673 73.509 40.6332 73.509 42.5858 71.5563L48.4352 65.707C49.0591 65.083 49.4415 64.258 49.5143 63.3787C49.6047 62.2866 49.21 61.21 48.4352 60.4352L46.6359 58.6359Z" fill="url(#paint3_radial_2_7435)"/>
<path fill-rule="evenodd" clip-rule="evenodd" d="M46.6359 58.6359C45.861 57.861 44.7845 57.4664 43.6924 57.5568C42.813 57.6296 41.988 58.012 41.3641 58.6359L35.5147 64.4853C33.5621 66.4379 33.5621 69.6037 35.5147 71.5564C37.4673 73.509 40.6332 73.509 42.5858 71.5563L48.4352 65.707C49.0591 65.083 49.4415 64.258 49.5143 63.3787C49.6047 62.2866 49.21 61.21 48.4352 60.4352L46.6359 58.6359Z" fill="url(#paint4_radial_2_7435)" fill-opacity="0.5"/>
<path fill-rule="evenodd" clip-rule="evenodd" d="M46.6359 58.6359C45.861 57.861 44.7845 57.4664 43.6924 57.5568C42.813 57.6296 41.988 58.012 41.3641 58.6359L35.5147 64.4853C33.5621 66.4379 33.5621 69.6037 35.5147 71.5564C37.4673 73.509 40.6332 73.509 42.5858 71.5563L48.4352 65.707C49.0591 65.083 49.4415 64.258 49.5143 63.3787C49.6047 62.2866 49.21 61.21 48.4352 60.4352L46.6359 58.6359Z" fill="url(#paint5_linear_2_7435)"/>
<path d="M67.7829 27.4262C65.293 26.8579 62.707 26.8579 60.2171 27.4262C57.7273 27.9945 55.3974 29.1165 53.4007 30.7089C51.4039 32.3012 49.7916 34.323 48.6835 36.624C47.5754 38.925 47 41.4461 47 44C47 46.5539 47.5754 49.075 48.6835 51.376C49.7916 53.677 51.4039 55.6988 53.4007 57.2911C55.3974 58.8835 57.7273 60.0055 60.2171 60.5738C62.707 61.1421 65.293 61.1421 67.7829 60.5738C70.2727 60.0055 72.6026 58.8835 74.5993 57.2911C76.5961 55.6988 78.2084 53.677 79.3165 51.376C80.4246 49.075 81 46.5539 81 44C81 41.4461 80.4246 38.925 79.3165 36.624C78.2084 34.323 76.5961 32.3012 74.5993 30.7089C72.6026 29.1165 70.2727 27.9945 67.7829 27.4262Z" fill="#4633B9"/>
<path d="M67.7829 27.4262C65.293 26.8579 62.707 26.8579 60.2171 27.4262C57.7273 27.9945 55.3974 29.1165 53.4007 30.7089C51.4039 32.3012 49.7916 34.323 48.6835 36.624C47.5754 38.925 47 41.4461 47 44C47 46.5539 47.5754 49.075 48.6835 51.376C49.7916 53.677 51.4039 55.6988 53.4007 57.2911C55.3974 58.8835 57.7273 60.0055 60.2171 60.5738C62.707 61.1421 65.293 61.1421 67.7829 60.5738C70.2727 60.0055 72.6026 58.8835 74.5993 57.2911C76.5961 55.6988 78.2084 53.677 79.3165 51.376C80.4246 49.075 81 46.5539 81 44C81 41.4461 80.4246 38.925 79.3165 36.624C78.2084 34.323 76.5961 32.3012 74.5993 30.7089C72.6026 29.1165 70.2727 27.9945 67.7829 27.4262Z" fill="#1767F9"/>
<path d="M67.7829 27.4262C65.293 26.8579 62.707 26.8579 60.2171 27.4262C57.7273 27.9945 55.3974 29.1165 53.4007 30.7089C51.4039 32.3012 49.7916 34.323 48.6835 36.624C47.5754 38.925 47 41.4461 47 44C47 46.5539 47.5754 49.075 48.6835 51.376C49.7916 53.677 51.4039 55.6988 53.4007 57.2911C55.3974 58.8835 57.7273 60.0055 60.2171 60.5738C62.707 61.1421 65.293 61.1421 67.7829 60.5738C70.2727 60.0055 72.6026 58.8835 74.5993 57.2911C76.5961 55.6988 78.2084 53.677 79.3165 51.376C80.4246 49.075 81 46.5539 81 44C81 41.4461 80.4246 38.925 79.3165 36.624C78.2084 34.323 76.5961 32.3012 74.5993 30.7089C72.6026 29.1165 70.2727 27.9945 67.7829 27.4262Z" fill="#4BB1BC"/>
<path d="M67.7829 27.4262C65.293 26.8579 62.707 26.8579 60.2171 27.4262C57.7273 27.9945 55.3974 29.1165 53.4007 30.7089C51.4039 32.3012 49.7916 34.323 48.6835 36.624C47.5754 38.925 47 41.4461 47 44C47 46.5539 47.5754 49.075 48.6835 51.376C49.7916 53.677 51.4039 55.6988 53.4007 57.2911C55.3974 58.8835 57.7273 60.0055 60.2171 60.5738C62.707 61.1421 65.293 61.1421 67.7829 60.5738C70.2727 60.0055 72.6026 58.8835 74.5993 57.2911C76.5961 55.6988 78.2084 53.677 79.3165 51.376C80.4246 49.075 81 46.5539 81 44C81 41.4461 80.4246 38.925 79.3165 36.624C78.2084 34.323 76.5961 32.3012 74.5993 30.7089C72.6026 29.1165 70.2727 27.9945 67.7829 27.4262Z" fill="url(#paint6_radial_2_7435)"/>
<path d="M67.7829 27.4262C65.293 26.8579 62.707 26.8579 60.2171 27.4262C57.7273 27.9945 55.3974 29.1165 53.4007 30.7089C51.4039 32.3012 49.7916 34.323 48.6835 36.624C47.5754 38.925 47 41.4461 47 44C47 46.5539 47.5754 49.075 48.6835 51.376C49.7916 53.677 51.4039 55.6988 53.4007 57.2911C55.3974 58.8835 57.7273 60.0055 60.2171 60.5738C62.707 61.1421 65.293 61.1421 67.7829 60.5738C70.2727 60.0055 72.6026 58.8835 74.5993 57.2911C76.5961 55.6988 78.2084 53.677 79.3165 51.376C80.4246 49.075 81 46.5539 81 44C81 41.4461 80.4246 38.925 79.3165 36.624C78.2084 34.323 76.5961 32.3012 74.5993 30.7089C72.6026 29.1165 70.2727 27.9945 67.7829 27.4262Z" fill="url(#paint7_radial_2_7435)" fill-opacity="0.5"/>
<path d="M67.7829 27.4262C65.293 26.8579 62.707 26.8579 60.2171 27.4262C57.7273 27.9945 55.3974 29.1165 53.4007 30.7089C51.4039 32.3012 49.7916 34.323 48.6835 36.624C47.5754 38.925 47 41.4461 47 44C47 46.5539 47.5754 49.075 48.6835 51.376C49.7916 53.677 51.4039 55.6988 53.4007 57.2911C55.3974 58.8835 57.7273 60.0055 60.2171 60.5738C62.707 61.1421 65.293 61.1421 67.7829 60.5738C70.2727 60.0055 72.6026 58.8835 74.5993 57.2911C76.5961 55.6988 78.2084 53.677 79.3165 51.376C80.4246 49.075 81 46.5539 81 44C81 41.4461 80.4246 38.925 79.3165 36.624C78.2084 34.323 76.5961 32.3012 74.5993 30.7089C72.6026 29.1165 70.2727 27.9945 67.7829 27.4262Z" fill="url(#paint8_radial_2_7435)"/>
<path d="M66.9477 32.7758C65.3366 32.4081 63.6634 32.4081 62.0523 32.7758C60.4412 33.1435 58.9336 33.8695 57.6416 34.8999C56.3496 35.9302 55.3064 37.2384 54.5893 38.7273C53.8723 40.2162 53.5 41.8475 53.5 43.5C53.5 45.1525 53.8723 46.7838 54.5893 48.2727C55.3064 49.7616 56.3496 51.0698 57.6416 52.1001C58.9336 53.1305 60.4412 53.8565 62.0523 54.2242C63.6634 54.5919 65.3366 54.5919 66.9477 54.2242C68.5588 53.8565 70.0664 53.1305 71.3584 52.1001C72.6504 51.0698 73.6936 49.7616 74.4107 48.2727C75.1277 46.7838 75.5 45.1525 75.5 43.5C75.5 41.8475 75.1277 40.2162 74.4107 38.7273C73.6936 37.2384 72.6504 35.9302 71.3584 34.8999C70.0664 33.8695 68.5588 33.1435 66.9477 32.7758Z" stroke="#4633B9" stroke-width="3"/>
<path d="M66.9477 32.7758C65.3366 32.4081 63.6634 32.4081 62.0523 32.7758C60.4412 33.1435 58.9336 33.8695 57.6416 34.8999C56.3496 35.9302 55.3064 37.2384 54.5893 38.7273C53.8723 40.2162 53.5 41.8475 53.5 43.5C53.5 45.1525 53.8723 46.7838 54.5893 48.2727C55.3064 49.7616 56.3496 51.0698 57.6416 52.1001C58.9336 53.1305 60.4412 53.8565 62.0523 54.2242C63.6634 54.5919 65.3366 54.5919 66.9477 54.2242C68.5588 53.8565 70.0664 53.1305 71.3584 52.1001C72.6504 51.0698 73.6936 49.7616 74.4107 48.2727C75.1277 46.7838 75.5 45.1525 75.5 43.5C75.5 41.8475 75.1277 40.2162 74.4107 38.7273C73.6936 37.2384 72.6504 35.9302 71.3584 34.8999C70.0664 33.8695 68.5588 33.1435 66.9477 32.7758Z" stroke="#1767F9" stroke-width="3"/>
<path d="M66.9477 32.7758C65.3366 32.4081 63.6634 32.4081 62.0523 32.7758C60.4412 33.1435 58.9336 33.8695 57.6416 34.8999C56.3496 35.9302 55.3064 37.2384 54.5893 38.7273C53.8723 40.2162 53.5 41.8475 53.5 43.5C53.5 45.1525 53.8723 46.7838 54.5893 48.2727C55.3064 49.7616 56.3496 51.0698 57.6416 52.1001C58.9336 53.1305 60.4412 53.8565 62.0523 54.2242C63.6634 54.5919 65.3366 54.5919 66.9477 54.2242C68.5588 53.8565 70.0664 53.1305 71.3584 52.1001C72.6504 51.0698 73.6936 49.7616 74.4107 48.2727C75.1277 46.7838 75.5 45.1525 75.5 43.5C75.5 41.8475 75.1277 40.2162 74.4107 38.7273C73.6936 37.2384 72.6504 35.9302 71.3584 34.8999C70.0664 33.8695 68.5588 33.1435 66.9477 32.7758Z" stroke="#4BB1BC" stroke-width="3"/>
<path d="M66.9477 32.7758C65.3366 32.4081 63.6634 32.4081 62.0523 32.7758C60.4412 33.1435 58.9336 33.8695 57.6416 34.8999C56.3496 35.9302 55.3064 37.2384 54.5893 38.7273C53.8723 40.2162 53.5 41.8475 53.5 43.5C53.5 45.1525 53.8723 46.7838 54.5893 48.2727C55.3064 49.7616 56.3496 51.0698 57.6416 52.1001C58.9336 53.1305 60.4412 53.8565 62.0523 54.2242C63.6634 54.5919 65.3366 54.5919 66.9477 54.2242C68.5588 53.8565 70.0664 53.1305 71.3584 52.1001C72.6504 51.0698 73.6936 49.7616 74.4107 48.2727C75.1277 46.7838 75.5 45.1525 75.5 43.5C75.5 41.8475 75.1277 40.2162 74.4107 38.7273C73.6936 37.2384 72.6504 35.9302 71.3584 34.8999C70.0664 33.8695 68.5588 33.1435 66.9477 32.7758Z" stroke="url(#paint9_radial_2_7435)" stroke-width="3"/>
<path d="M66.9477 32.7758C65.3366 32.4081 63.6634 32.4081 62.0523 32.7758C60.4412 33.1435 58.9336 33.8695 57.6416 34.8999C56.3496 35.9302 55.3064 37.2384 54.5893 38.7273C53.8723 40.2162 53.5 41.8475 53.5 43.5C53.5 45.1525 53.8723 46.7838 54.5893 48.2727C55.3064 49.7616 56.3496 51.0698 57.6416 52.1001C58.9336 53.1305 60.4412 53.8565 62.0523 54.2242C63.6634 54.5919 65.3366 54.5919 66.9477 54.2242C68.5588 53.8565 70.0664 53.1305 71.3584 52.1001C72.6504 51.0698 73.6936 49.7616 74.4107 48.2727C75.1277 46.7838 75.5 45.1525 75.5 43.5C75.5 41.8475 75.1277 40.2162 74.4107 38.7273C73.6936 37.2384 72.6504 35.9302 71.3584 34.8999C70.0664 33.8695 68.5588 33.1435 66.9477 32.7758Z" stroke="url(#paint10_radial_2_7435)" stroke-opacity="0.5" stroke-width="3"/>
<path d="M66.9477 32.7758C65.3366 32.4081 63.6634 32.4081 62.0523 32.7758C60.4412 33.1435 58.9336 33.8695 57.6416 34.8999C56.3496 35.9302 55.3064 37.2384 54.5893 38.7273C53.8723 40.2162 53.5 41.8475 53.5 43.5C53.5 45.1525 53.8723 46.7838 54.5893 48.2727C55.3064 49.7616 56.3496 51.0698 57.6416 52.1001C58.9336 53.1305 60.4412 53.8565 62.0523 54.2242C63.6634 54.5919 65.3366 54.5919 66.9477 54.2242C68.5588 53.8565 70.0664 53.1305 71.3584 52.1001C72.6504 51.0698 73.6936 49.7616 74.4107 48.2727C75.1277 46.7838 75.5 45.1525 75.5 43.5C75.5 41.8475 75.1277 40.2162 74.4107 38.7273C73.6936 37.2384 72.6504 35.9302 71.3584 34.8999C70.0664 33.8695 68.5588 33.1435 66.9477 32.7758Z" stroke="url(#paint11_radial_2_7435)" stroke-width="3"/>
<path d="M66.7815 31.8134C64.9507 31.3955 63.0493 31.3955 61.2185 31.8134C59.3877 32.2313 57.6746 33.0563 56.2064 34.2271C54.7382 35.3979 53.5527 36.8845 52.7379 38.5765C51.9231 40.2684 51.5 42.1221 51.5 44C51.5 45.8779 51.9231 47.7316 52.7379 49.4235C53.5527 51.1155 54.7382 52.6021 56.2064 53.7729C57.6746 54.9437 59.3877 55.7687 61.2185 56.1866C63.0493 56.6045 64.9507 56.6045 66.7815 56.1866C68.6123 55.7687 70.3254 54.9437 71.7936 53.7729C73.2618 52.6021 74.4473 51.1155 75.2621 49.4235C76.0769 47.7316 76.5 45.8779 76.5 44C76.5 42.1221 76.0769 40.2684 75.2621 38.5765C74.4473 36.8845 73.2618 35.3979 71.7936 34.2271C70.3254 33.0563 68.6123 32.2313 66.7815 31.8134Z" fill="#4633B9"/>
<path d="M66.7815 31.8134C64.9507 31.3955 63.0493 31.3955 61.2185 31.8134C59.3877 32.2313 57.6746 33.0563 56.2064 34.2271C54.7382 35.3979 53.5527 36.8845 52.7379 38.5765C51.9231 40.2684 51.5 42.1221 51.5 44C51.5 45.8779 51.9231 47.7316 52.7379 49.4235C53.5527 51.1155 54.7382 52.6021 56.2064 53.7729C57.6746 54.9437 59.3877 55.7687 61.2185 56.1866C63.0493 56.6045 64.9507 56.6045 66.7815 56.1866C68.6123 55.7687 70.3254 54.9437 71.7936 53.7729C73.2618 52.6021 74.4473 51.1155 75.2621 49.4235C76.0769 47.7316 76.5 45.8779 76.5 44C76.5 42.1221 76.0769 40.2684 75.2621 38.5765C74.4473 36.8845 73.2618 35.3979 71.7936 34.2271C70.3254 33.0563 68.6123 32.2313 66.7815 31.8134Z" fill="#1767F9"/>
<path d="M66.7815 31.8134C64.9507 31.3955 63.0493 31.3955 61.2185 31.8134C59.3877 32.2313 57.6746 33.0563 56.2064 34.2271C54.7382 35.3979 53.5527 36.8845 52.7379 38.5765C51.9231 40.2684 51.5 42.1221 51.5 44C51.5 45.8779 51.9231 47.7316 52.7379 49.4235C53.5527 51.1155 54.7382 52.6021 56.2064 53.7729C57.6746 54.9437 59.3877 55.7687 61.2185 56.1866C63.0493 56.6045 64.9507 56.6045 66.7815 56.1866C68.6123 55.7687 70.3254 54.9437 71.7936 53.7729C73.2618 52.6021 74.4473 51.1155 75.2621 49.4235C76.0769 47.7316 76.5 45.8779 76.5 44C76.5 42.1221 76.0769 40.2684 75.2621 38.5765C74.4473 36.8845 73.2618 35.3979 71.7936 34.2271C70.3254 33.0563 68.6123 32.2313 66.7815 31.8134Z" fill="#4BB1BC"/>
<path d="M66.7815 31.8134C64.9507 31.3955 63.0493 31.3955 61.2185 31.8134C59.3877 32.2313 57.6746 33.0563 56.2064 34.2271C54.7382 35.3979 53.5527 36.8845 52.7379 38.5765C51.9231 40.2684 51.5 42.1221 51.5 44C51.5 45.8779 51.9231 47.7316 52.7379 49.4235C53.5527 51.1155 54.7382 52.6021 56.2064 53.7729C57.6746 54.9437 59.3877 55.7687 61.2185 56.1866C63.0493 56.6045 64.9507 56.6045 66.7815 56.1866C68.6123 55.7687 70.3254 54.9437 71.7936 53.7729C73.2618 52.6021 74.4473 51.1155 75.2621 49.4235C76.0769 47.7316 76.5 45.8779 76.5 44C76.5 42.1221 76.0769 40.2684 75.2621 38.5765C74.4473 36.8845 73.2618 35.3979 71.7936 34.2271C70.3254 33.0563 68.6123 32.2313 66.7815 31.8134Z" fill="url(#paint12_radial_2_7435)"/>
<path d="M66.7815 31.8134C64.9507 31.3955 63.0493 31.3955 61.2185 31.8134C59.3877 32.2313 57.6746 33.0563 56.2064 34.2271C54.7382 35.3979 53.5527 36.8845 52.7379 38.5765C51.9231 40.2684 51.5 42.1221 51.5 44C51.5 45.8779 51.9231 47.7316 52.7379 49.4235C53.5527 51.1155 54.7382 52.6021 56.2064 53.7729C57.6746 54.9437 59.3877 55.7687 61.2185 56.1866C63.0493 56.6045 64.9507 56.6045 66.7815 56.1866C68.6123 55.7687 70.3254 54.9437 71.7936 53.7729C73.2618 52.6021 74.4473 51.1155 75.2621 49.4235C76.0769 47.7316 76.5 45.8779 76.5 44C76.5 42.1221 76.0769 40.2684 75.2621 38.5765C74.4473 36.8845 73.2618 35.3979 71.7936 34.2271C70.3254 33.0563 68.6123 32.2313 66.7815 31.8134Z" fill="url(#paint13_radial_2_7435)" fill-opacity="0.5"/>
<path d="M66.7815 31.8134C64.9507 31.3955 63.0493 31.3955 61.2185 31.8134C59.3877 32.2313 57.6746 33.0563 56.2064 34.2271C54.7382 35.3979 53.5527 36.8845 52.7379 38.5765C51.9231 40.2684 51.5 42.1221 51.5 44C51.5 45.8779 51.9231 47.7316 52.7379 49.4235C53.5527 51.1155 54.7382 52.6021 56.2064 53.7729C57.6746 54.9437 59.3877 55.7687 61.2185 56.1866C63.0493 56.6045 64.9507 56.6045 66.7815 56.1866C68.6123 55.7687 70.3254 54.9437 71.7936 53.7729C73.2618 52.6021 74.4473 51.1155 75.2621 49.4235C76.0769 47.7316 76.5 45.8779 76.5 44C76.5 42.1221 76.0769 40.2684 75.2621 38.5765C74.4473 36.8845 73.2618 35.3979 71.7936 34.2271C70.3254 33.0563 68.6123 32.2313 66.7815 31.8134Z" fill="url(#paint14_linear_2_7435)"/>
<path d="M66.7815 31.8134C64.9507 31.3955 63.0493 31.3955 61.2185 31.8134C59.3877 32.2313 57.6746 33.0563 56.2064 34.2271C54.7382 35.3979 53.5527 36.8845 52.7379 38.5765C51.9231 40.2684 51.5 42.1221 51.5 44C51.5 45.8779 51.9231 47.7316 52.7379 49.4235C53.5527 51.1155 54.7382 52.6021 56.2064 53.7729C57.6746 54.9437 59.3877 55.7687 61.2185 56.1866C63.0493 56.6045 64.9507 56.6045 66.7815 56.1866C68.6123 55.7687 70.3254 54.9437 71.7936 53.7729C73.2618 52.6021 74.4473 51.1155 75.2621 49.4235C76.0769 47.7316 76.5 45.8779 76.5 44C76.5 42.1221 76.0769 40.2684 75.2621 38.5765C74.4473 36.8845 73.2618 35.3979 71.7936 34.2271C70.3254 33.0563 68.6123 32.2313 66.7815 31.8134Z" stroke="black" stroke-width="3"/>
</g>
</g>
<defs>
<filter id="filter0_d_2_7435" x="0" y="0" width="118" height="118" filterUnits="userSpaceOnUse" color-interpolation-filters="sRGB">
<feFlood flood-opacity="0" result="BackgroundImageFix"/>
<feColorMatrix in="SourceAlpha" type="matrix" values="0 0 0 0 0 0 0 0 0 0 0 0 0 0 0 0 0 0 127 0" result="hardAlpha"/>
<feMorphology radius="6" operator="erode" in="SourceAlpha" result="effect1_dropShadow_2_7435"/>
<feOffset dy="10"/>
<feGaussianBlur stdDeviation="15"/>
<feColorMatrix type="matrix" values="0 0 0 0 0.1375 0 0 0 0 0.0965937 0 0 0 0 0.0171875 0 0 0 0.15 0"/>
<feBlend mode="normal" in2="BackgroundImageFix" result="effect1_dropShadow_2_7435"/>
<feBlend mode="normal" in="SourceGraphic" in2="effect1_dropShadow_2_7435" result="shape"/>
</filter>
<radialGradient id="paint0_radial_2_7435" cx="0" cy="0" r="1" gradientUnits="userSpaceOnUse" gradientTransform="translate(3 8.85714) rotate(101.976) scale(6.42557 3.80733)">
<stop stop-color="#FF8A1E"/>
<stop offset="1" stop-color="#EF4141"/>
</radialGradient>
<radialGradient id="paint1_radial_2_7435" cx="0" cy="0" r="1" gradientUnits="userSpaceOnUse" gradientTransform="translate(2.44709 6.14286) rotate(-133.85) scale(7.92381 12.8151)">
<stop stop-color="#FFA901"/>
<stop offset="1" stop-color="#FFC701" stop-opacity="0"/>
</radialGradient>
<linearGradient id="paint2_linear_2_7435" x1="4.15864" y1="5.58417e-07" x2="-6.77772" y2="8.56098" gradientUnits="userSpaceOnUse">
<stop stop-color="#FFDF35"/>
<stop offset="1" stop-color="#FF8A01" stop-opacity="0"/>
</linearGradient>
<radialGradient id="paint3_radial_2_7435" cx="0" cy="0" r="1" gradientUnits="userSpaceOnUse" gradientTransform="translate(39.3701 69.1151) rotate(151.671) scale(9.29548 7.45691)">
<stop stop-color="#FF8A1E"/>
<stop offset="1" stop-color="#EF4141"/>
</radialGradient>
<radialGradient id="paint4_radial_2_7435" cx="0" cy="0" r="1" gradientUnits="userSpaceOnUse" gradientTransform="translate(41.3072 65.6142) rotate(-98.5968) scale(13.6407 21.0921)">
<stop stop-color="#FFA901"/>
<stop offset="1" stop-color="#FFC701" stop-opacity="0"/>
</radialGradient>
<linearGradient id="paint5_linear_2_7435" x1="49.8812" y1="61.8812" x2="26.2421" y2="63.0617" gradientUnits="userSpaceOnUse">
<stop stop-color="#FFDF35"/>
<stop offset="1" stop-color="#FF8A01" stop-opacity="0"/>
</linearGradient>
<radialGradient id="paint6_radial_2_7435" cx="0" cy="0" r="1" gradientUnits="userSpaceOnUse" gradientTransform="translate(60.5127 52.3033) rotate(63.0198) scale(20.4985 24.192)">
<stop stop-color="#FF8A1E"/>
<stop offset="1" stop-color="#EF4141"/>
</radialGradient>
<radialGradient id="paint7_radial_2_7435" cx="0" cy="0" r="1" gradientUnits="userSpaceOnUse" gradientTransform="translate(64.3691 44.4151) rotate(-23.4481) scale(41.7344 49.3202)">
<stop stop-color="#FFA901"/>
<stop offset="1" stop-color="#FFC701" stop-opacity="0"/>
</radialGradient>
<radialGradient id="paint8_radial_2_7435" cx="0" cy="0" r="1" gradientUnits="userSpaceOnUse" gradientTransform="translate(64.3692 42.7544) rotate(-10.5132) scale(45.7354 39.3672)">
<stop stop-color="#FFDF35"/>
<stop offset="1" stop-color="#FF8A01" stop-opacity="0"/>
</radialGradient>
<radialGradient id="paint9_radial_2_7435" cx="0" cy="0" r="1" gradientUnits="userSpaceOnUse" gradientTransform="translate(61.9358 49.6054) rotate(63.0198) scale(15.0724 17.7882)">
<stop stop-color="#FF8A1E"/>
<stop offset="1" stop-color="#EF4141"/>
</radialGradient>
<radialGradient id="paint10_radial_2_7435" cx="0" cy="0" r="1" gradientUnits="userSpaceOnUse" gradientTransform="translate(64.7714 43.8052) rotate(-23.4481) scale(30.687 36.2648)">
<stop stop-color="#FFA901"/>
<stop offset="1" stop-color="#FFC701" stop-opacity="0"/>
</radialGradient>
<radialGradient id="paint11_radial_2_7435" cx="0" cy="0" r="1" gradientUnits="userSpaceOnUse" gradientTransform="translate(64.7714 42.5841) rotate(-11.4208) scale(24.0688 20.7175)">
<stop stop-color="#FFDF35"/>
<stop offset="1" stop-color="#FF8A01" stop-opacity="0"/>
</radialGradient>
<radialGradient id="paint12_radial_2_7435" cx="0" cy="0" r="1" gradientUnits="userSpaceOnUse" gradientTransform="translate(61.2 50.6667) rotate(63.0198) scale(16.4579 19.4233)">
<stop stop-color="#FF8A1E"/>
<stop offset="1" stop-color="#EF4141"/>
</radialGradient>
<radialGradient id="paint13_radial_2_7435" cx="0" cy="0" r="1" gradientUnits="userSpaceOnUse" gradientTransform="translate(64.2963 44.3333) rotate(-23.4481) scale(33.5078 39.5983)">
<stop stop-color="#FFA901"/>
<stop offset="1" stop-color="#FFC701" stop-opacity="0"/>
</radialGradient>
<linearGradient id="paint14_linear_2_7435" x1="60.5" y1="38.5" x2="68.6662" y2="49.7424" gradientUnits="userSpaceOnUse">
<stop stop-color="#FFDF35"/>
<stop offset="1" stop-color="#FFDF35" stop-opacity="0"/>
</linearGradient>
<clipPath id="clip0_2_7435">
<rect width="50" height="50" fill="white" transform="matrix(-1 0 0 1 84 24)"/>
</clipPath>
</defs>
</svg>
