<svg width="432" height="99" viewBox="0 0 432 99" fill="none" xmlns="http://www.w3.org/2000/svg">
<g filter="url(#filter0_d_2_7380)">
<path d="M10 45.9444C10 26.5838 25.6949 10.8889 45.0555 10.8889H89.4244C93.3365 10.8889 97.1532 9.68131 100.353 7.43106L106.351 3.21342C107.387 2.48545 108.767 2.48545 109.803 3.21342L115.801 7.43105C119.001 9.6813 122.817 10.8889 126.729 10.8889H386.944C406.305 10.8889 422 26.5838 422 45.9444C422 65.3051 406.305 81 386.944 81H45.0555C25.6949 81 10 65.3051 10 45.9444Z" fill="url(#paint0_linear_2_7380)"/>
</g>
<path d="M70 53.5L77 46L70 38.5" stroke="white" stroke-width="3"/>
<path d="M100.73 45.43C101.846 44.944 102.548 43.972 102.548 42.748C102.548 40.462 100.028 39.13 97.112 39.13C95.672 39.13 94.16 39.454 92.792 40.156L93.674 42.424C94.754 41.812 95.996 41.524 97.058 41.524C98.48 41.524 99.596 42.064 99.596 43.09C99.596 43.918 98.912 44.44 97.724 44.44H94.862V46.636H97.94C99.254 46.636 100.118 47.104 100.118 48.058C100.118 49.228 98.768 49.84 97.112 49.84C95.888 49.84 94.484 49.516 93.332 48.814L92.432 50.902C93.998 51.802 95.78 52.216 97.454 52.216C100.478 52.216 103.07 50.848 103.07 48.472C103.07 47.05 102.188 45.934 100.73 45.43ZM108.925 42.172C107.377 42.172 105.811 42.586 104.749 43.342L105.757 45.304C106.458 44.746 107.521 44.404 108.547 44.404C110.059 44.404 110.779 45.106 110.779 46.312H108.547C105.595 46.312 104.389 47.5 104.389 49.21C104.389 50.884 105.739 52.144 108.007 52.144C109.429 52.144 110.437 51.676 110.959 50.794V52H113.587V46.474C113.587 43.54 111.877 42.172 108.925 42.172ZM108.709 50.254C107.719 50.254 107.125 49.786 107.125 49.084C107.125 48.436 107.539 47.95 108.853 47.95H110.779V48.94C110.455 49.822 109.645 50.254 108.709 50.254ZM116.026 42.316V52H118.816V44.62H122.848V52H125.656V42.316H116.026ZM128.348 52H130.94L135.638 46.24V52H138.428V42.316H135.854L131.138 48.076V42.316H128.348V52ZM145.735 52.144C147.769 52.144 149.371 51.244 150.073 49.696L147.895 48.508C147.373 49.444 146.599 49.84 145.717 49.84C144.295 49.84 143.179 48.85 143.179 47.158C143.179 45.466 144.295 44.476 145.717 44.476C146.599 44.476 147.373 44.89 147.895 45.808L150.073 44.638C149.371 43.054 147.769 42.172 145.735 42.172C142.585 42.172 140.335 44.242 140.335 47.158C140.335 50.074 142.585 52.144 145.735 52.144ZM155.542 42.172C153.994 42.172 152.428 42.586 151.366 43.342L152.374 45.304C153.076 44.746 154.138 44.404 155.164 44.404C156.676 44.404 157.396 45.106 157.396 46.312H155.164C152.212 46.312 151.006 47.5 151.006 49.21C151.006 50.884 152.356 52.144 154.624 52.144C156.046 52.144 157.054 51.676 157.576 50.794V52H160.204V46.474C160.204 43.54 158.494 42.172 155.542 42.172ZM155.326 50.254C154.336 50.254 153.742 49.786 153.742 49.084C153.742 48.436 154.156 47.95 155.47 47.95H157.396V48.94C157.072 49.822 156.262 50.254 155.326 50.254ZM170.779 42.316H161.437V44.62H164.713V52H167.503V44.62H170.779V42.316ZM177.514 45.412H175.066V42.316H172.276V52L177.136 52.018C179.836 52.018 181.42 50.776 181.42 48.634C181.42 46.6 180.052 45.43 177.514 45.412ZM176.884 50.02H175.066V47.212L176.884 47.23C177.964 47.248 178.558 47.644 178.558 48.598C178.558 49.552 177.964 50.038 176.884 50.02ZM187.782 52.144C189.816 52.144 191.418 51.244 192.12 49.696L189.942 48.508C189.42 49.444 188.646 49.84 187.764 49.84C186.342 49.84 185.226 48.85 185.226 47.158C185.226 45.466 186.342 44.476 187.764 44.476C188.646 44.476 189.42 44.89 189.942 45.808L192.12 44.638C191.418 43.054 189.816 42.172 187.782 42.172C184.632 42.172 182.382 44.242 182.382 47.158C182.382 50.074 184.632 52.144 187.782 52.144ZM197.558 42.316C194.714 42.316 192.932 43.576 192.932 45.88C192.932 47.302 193.67 48.31 195.002 48.832L192.788 52H195.776L197.612 49.228H199.682V52H202.184V42.316H197.558ZM197.612 44.602H199.682V47.356H197.576C196.406 47.356 195.794 46.942 195.794 45.97C195.794 44.998 196.442 44.602 197.612 44.602ZM209.981 52H212.771V48.382H216.983V52H219.791V42.316H216.983V46.096H212.771V42.316H209.981V52ZM226.241 42.172C224.693 42.172 223.127 42.586 222.065 43.342L223.073 45.304C223.775 44.746 224.837 44.404 225.863 44.404C227.375 44.404 228.095 45.106 228.095 46.312H225.863C222.911 46.312 221.705 47.5 221.705 49.21C221.705 50.884 223.055 52.144 225.323 52.144C226.745 52.144 227.753 51.676 228.275 50.794V52H230.903V46.474C230.903 43.54 229.193 42.172 226.241 42.172ZM226.025 50.254C225.035 50.254 224.441 49.786 224.441 49.084C224.441 48.436 224.855 47.95 226.169 47.95H228.095V48.94C227.771 49.822 226.961 50.254 226.025 50.254ZM247.908 49.696V42.316H239.466L239.34 45.664C239.232 47.77 238.998 49.66 237.666 49.696H237.27V54.088H239.88V52H246.684V54.088H249.294V49.696H247.908ZM241.878 45.862L241.932 44.62H245.1V49.696H241.014C241.698 48.976 241.824 47.5 241.878 45.862ZM251.061 52H253.653L258.351 46.24V52H261.141V42.316H258.567L253.851 48.076V42.316H251.061V52ZM267.602 42.172C266.054 42.172 264.488 42.586 263.426 43.342L264.434 45.304C265.136 44.746 266.198 44.404 267.224 44.404C268.736 44.404 269.456 45.106 269.456 46.312H267.224C264.272 46.312 263.066 47.5 263.066 49.21C263.066 50.884 264.416 52.144 266.684 52.144C268.106 52.144 269.114 51.676 269.636 50.794V52H272.264V46.474C272.264 43.54 270.554 42.172 267.602 42.172ZM267.386 50.254C266.396 50.254 265.802 49.786 265.802 49.084C265.802 48.436 266.216 47.95 267.53 47.95H269.456V48.94C269.132 49.822 268.322 50.254 267.386 50.254ZM282.462 42.316H274.704V52H277.494V44.62H282.462V42.316ZM283.95 52H286.74V48.382H290.952V52H293.76V42.316H290.952V46.096H286.74V42.316H283.95V52ZM300.984 52.144C304.062 52.144 306.294 50.074 306.294 47.158C306.294 44.242 304.062 42.172 300.984 42.172C297.906 42.172 295.656 44.242 295.656 47.158C295.656 50.074 297.906 52.144 300.984 52.144ZM300.984 49.84C299.58 49.84 298.5 48.832 298.5 47.158C298.5 45.484 299.58 44.476 300.984 44.476C302.388 44.476 303.45 45.484 303.45 47.158C303.45 48.832 302.388 49.84 300.984 49.84ZM312.833 52.144C314.867 52.144 316.469 51.244 317.171 49.696L314.993 48.508C314.471 49.444 313.697 49.84 312.815 49.84C311.393 49.84 310.277 48.85 310.277 47.158C310.277 45.466 311.393 44.476 312.815 44.476C313.697 44.476 314.471 44.89 314.993 45.808L317.171 44.638C316.469 43.054 314.867 42.172 312.833 42.172C309.683 42.172 307.433 44.242 307.433 47.158C307.433 50.074 309.683 52.144 312.833 52.144ZM326.978 42.316H317.636V44.62H320.912V52H323.702V44.62H326.978V42.316ZM328.475 52H331.067L335.765 46.24V52H338.555V42.316H335.981L331.265 48.076V42.316H328.475V52ZM348.112 52H351.424L347.806 46.96L351.19 42.316H348.202L345.574 46.078H344.062V42.316H341.254V52H344.062V48.328H345.52L348.112 52ZM359.26 42.316L356.524 48.886L353.806 42.316H350.908L355.102 52.072L355.066 52.162C354.688 53.026 354.256 53.368 353.482 53.368C352.924 53.368 352.33 53.134 351.898 52.756L350.872 54.754C351.502 55.312 352.582 55.636 353.572 55.636C355.318 55.636 356.65 54.934 357.586 52.594L361.96 42.316H359.26Z" fill="white"/>
<defs>
<filter id="filter0_d_2_7380" x="0" y="0.66748" width="432" height="98.3325" filterUnits="userSpaceOnUse" color-interpolation-filters="sRGB">
<feFlood flood-opacity="0" result="BackgroundImageFix"/>
<feColorMatrix in="SourceAlpha" type="matrix" values="0 0 0 0 0 0 0 0 0 0 0 0 0 0 0 0 0 0 127 0" result="hardAlpha"/>
<feMorphology radius="5" operator="erode" in="SourceAlpha" result="effect1_dropShadow_2_7380"/>
<feOffset dy="8"/>
<feGaussianBlur stdDeviation="7.5"/>
<feColorMatrix type="matrix" values="0 0 0 0 0 0 0 0 0 0 0 0 0 0 0 0 0 0 0.1 0"/>
<feBlend mode="normal" in2="BackgroundImageFix" result="effect1_dropShadow_2_7380"/>
<feBlend mode="normal" in="SourceGraphic" in2="effect1_dropShadow_2_7380" result="shape"/>
</filter>
<linearGradient id="paint0_linear_2_7380" x1="422" y1="42" x2="10" y2="42" gradientUnits="userSpaceOnUse">
<stop stop-color="#FFCC00"/>
<stop offset="1" stop-color="#FFA300"/>
</linearGradient>
</defs>
</svg>
