<svg width="118" height="118" viewBox="0 0 118 118" fill="none" xmlns="http://www.w3.org/2000/svg">
<g filter="url(#filter0_d_2_7400)">
<rect x="24" y="14" width="70" height="70" rx="10" fill="white"/>
<path d="M50.9598 60.9598L47.9899 57.9899L73.954 32.0259L75.0412 28.9588L81.224 24.7559L84.1938 27.7258L79.991 33.9085L76.9239 34.9957L50.9598 60.9598Z" fill="black"/>
<path fill-rule="evenodd" clip-rule="evenodd" d="M58.5456 43.5456L56.0326 43.8094C53.9783 44.025 52.0603 44.9397 50.5997 46.4003L39.7365 57.2635C36.2218 60.7782 36.2218 66.4767 39.7365 69.9914C43.2513 73.5061 48.9498 73.5061 52.4645 69.9914L63.3276 59.1282C64.7882 57.6676 65.7029 55.7497 65.9185 53.6953L66.1823 51.1823L58.5456 43.5456Z" fill="#4633B9"/>
<path fill-rule="evenodd" clip-rule="evenodd" d="M58.5456 43.5456L56.0326 43.8094C53.9783 44.025 52.0603 44.9397 50.5997 46.4003L39.7365 57.2635C36.2218 60.7782 36.2218 66.4767 39.7365 69.9914C43.2513 73.5061 48.9498 73.5061 52.4645 69.9914L63.3276 59.1282C64.7882 57.6676 65.7029 55.7497 65.9185 53.6953L66.1823 51.1823L58.5456 43.5456Z" fill="#1767F9"/>
<path fill-rule="evenodd" clip-rule="evenodd" d="M58.5456 43.5456L56.0326 43.8094C53.9783 44.025 52.0603 44.9397 50.5997 46.4003L39.7365 57.2635C36.2218 60.7782 36.2218 66.4767 39.7365 69.9914C43.2513 73.5061 48.9498 73.5061 52.4645 69.9914L63.3276 59.1282C64.7882 57.6676 65.7029 55.7497 65.9185 53.6953L66.1823 51.1823L58.5456 43.5456Z" fill="#4BB1BC"/>
<path fill-rule="evenodd" clip-rule="evenodd" d="M58.5456 43.5456L56.0326 43.8094C53.9783 44.025 52.0603 44.9397 50.5997 46.4003L39.7365 57.2635C36.2218 60.7782 36.2218 66.4767 39.7365 69.9914C43.2513 73.5061 48.9498 73.5061 52.4645 69.9914L63.3276 59.1282C64.7882 57.6676 65.7029 55.7497 65.9185 53.6953L66.1823 51.1823L58.5456 43.5456Z" fill="#FFA300"/>
<path fill-rule="evenodd" clip-rule="evenodd" d="M58.5456 43.5456L56.0326 43.8094C53.9783 44.025 52.0603 44.9397 50.5997 46.4003L39.7365 57.2635C36.2218 60.7782 36.2218 66.4767 39.7365 69.9914C43.2513 73.5061 48.9498 73.5061 52.4645 69.9914L63.3276 59.1282C64.7882 57.6676 65.7029 55.7497 65.9185 53.6953L66.1823 51.1823L58.5456 43.5456Z" fill="url(#paint0_linear_2_7400)"/>
<path d="M64.4646 41.4646C62.4994 39.4994 59.303 40.3516 58.8818 42.9529L66.5324 50.6034C69.1337 50.1823 69.9858 46.9858 68.0207 45.0207L64.4646 41.4646Z" fill="#FFA300"/>
<rect x="54" y="50" width="2" height="18" rx="1" transform="rotate(45 54 50)" fill="black"/>
<rect x="58" y="54" width="2" height="18" rx="1" transform="rotate(45 58 54)" fill="black"/>
</g>
<defs>
<filter id="filter0_d_2_7400" x="0" y="0" width="118" height="118" filterUnits="userSpaceOnUse" color-interpolation-filters="sRGB">
<feFlood flood-opacity="0" result="BackgroundImageFix"/>
<feColorMatrix in="SourceAlpha" type="matrix" values="0 0 0 0 0 0 0 0 0 0 0 0 0 0 0 0 0 0 127 0" result="hardAlpha"/>
<feMorphology radius="6" operator="erode" in="SourceAlpha" result="effect1_dropShadow_2_7400"/>
<feOffset dy="10"/>
<feGaussianBlur stdDeviation="15"/>
<feColorMatrix type="matrix" values="0 0 0 0 0.1375 0 0 0 0 0.0965937 0 0 0 0 0.0171875 0 0 0 0.15 0"/>
<feBlend mode="normal" in2="BackgroundImageFix" result="effect1_dropShadow_2_7400"/>
<feBlend mode="normal" in="SourceGraphic" in2="effect1_dropShadow_2_7400" result="shape"/>
</filter>
<linearGradient id="paint0_linear_2_7400" x1="57.4142" y1="65.0416" x2="44.6863" y2="52.3137" gradientUnits="userSpaceOnUse">
<stop stop-color="#FFCC00"/>
<stop offset="1" stop-color="#FFA300"/>
</linearGradient>
</defs>
</svg>
