<svg width="118" height="118" viewBox="0 0 118 118" fill="none" xmlns="http://www.w3.org/2000/svg">
<g filter="url(#filter0_d_2_7411)">
<rect x="24" y="14" width="70" height="70" rx="10" fill="white"/>
<path d="M81.9215 36.2505C81.8791 35.8304 81.7288 35.4277 81.4846 35.0802C81.2403 34.7326 80.9102 34.4515 80.525 34.2632L60.1391 24.2643C59.785 24.0905 59.3946 24 58.9987 24C58.6028 24 58.2124 24.0905 57.8584 24.2643L37.4724 34.2632C37.0883 34.4526 36.7592 34.734 36.5155 35.0814C36.2719 35.4288 36.1216 35.8309 36.0785 36.2505C36.0505 36.518 33.6297 63.1652 57.9654 73.7816C58.2906 73.9256 58.6433 74 59 74C59.3568 74 59.7094 73.9256 60.0346 73.7816C84.3703 63.1652 81.9495 36.5205 81.9215 36.2505Z" fill="#4633B9"/>
<path d="M81.9215 36.2505C81.8791 35.8304 81.7288 35.4277 81.4846 35.0802C81.2403 34.7326 80.9102 34.4515 80.525 34.2632L60.1391 24.2643C59.785 24.0905 59.3946 24 58.9987 24C58.6028 24 58.2124 24.0905 57.8584 24.2643L37.4724 34.2632C37.0883 34.4526 36.7592 34.734 36.5155 35.0814C36.2719 35.4288 36.1216 35.8309 36.0785 36.2505C36.0505 36.518 33.6297 63.1652 57.9654 73.7816C58.2906 73.9256 58.6433 74 59 74C59.3568 74 59.7094 73.9256 60.0346 73.7816C84.3703 63.1652 81.9495 36.5205 81.9215 36.2505Z" fill="#1767F9"/>
<path d="M81.9215 36.2505C81.8791 35.8304 81.7288 35.4277 81.4846 35.0802C81.2403 34.7326 80.9102 34.4515 80.525 34.2632L60.1391 24.2643C59.785 24.0905 59.3946 24 58.9987 24C58.6028 24 58.2124 24.0905 57.8584 24.2643L37.4724 34.2632C37.0883 34.4526 36.7592 34.734 36.5155 35.0814C36.2719 35.4288 36.1216 35.8309 36.0785 36.2505C36.0505 36.518 33.6297 63.1652 57.9654 73.7816C58.2906 73.9256 58.6433 74 59 74C59.3568 74 59.7094 73.9256 60.0346 73.7816C84.3703 63.1652 81.9495 36.5205 81.9215 36.2505Z" fill="#4BB1BC"/>
<path d="M81.9215 36.2505C81.8791 35.8304 81.7288 35.4277 81.4846 35.0802C81.2403 34.7326 80.9102 34.4515 80.525 34.2632L60.1391 24.2643C59.785 24.0905 59.3946 24 58.9987 24C58.6028 24 58.2124 24.0905 57.8584 24.2643L37.4724 34.2632C37.0883 34.4526 36.7592 34.734 36.5155 35.0814C36.2719 35.4288 36.1216 35.8309 36.0785 36.2505C36.0505 36.518 33.6297 63.1652 57.9654 73.7816C58.2906 73.9256 58.6433 74 59 74C59.3568 74 59.7094 73.9256 60.0346 73.7816C84.3703 63.1652 81.9495 36.5205 81.9215 36.2505Z" fill="url(#paint0_radial_2_7411)"/>
<path d="M81.9215 36.2505C81.8791 35.8304 81.7288 35.4277 81.4846 35.0802C81.2403 34.7326 80.9102 34.4515 80.525 34.2632L60.1391 24.2643C59.785 24.0905 59.3946 24 58.9987 24C58.6028 24 58.2124 24.0905 57.8584 24.2643L37.4724 34.2632C37.0883 34.4526 36.7592 34.734 36.5155 35.0814C36.2719 35.4288 36.1216 35.8309 36.0785 36.2505C36.0505 36.518 33.6297 63.1652 57.9654 73.7816C58.2906 73.9256 58.6433 74 59 74C59.3568 74 59.7094 73.9256 60.0346 73.7816C84.3703 63.1652 81.9495 36.5205 81.9215 36.2505Z" fill="url(#paint1_radial_2_7411)" fill-opacity="0.5"/>
<path d="M81.9215 36.2505C81.8791 35.8304 81.7288 35.4277 81.4846 35.0802C81.2403 34.7326 80.9102 34.4515 80.525 34.2632L60.1391 24.2643C59.785 24.0905 59.3946 24 58.9987 24C58.6028 24 58.2124 24.0905 57.8584 24.2643L37.4724 34.2632C37.0883 34.4526 36.7592 34.734 36.5155 35.0814C36.2719 35.4288 36.1216 35.8309 36.0785 36.2505C36.0505 36.518 33.6297 63.1652 57.9654 73.7816C58.2906 73.9256 58.6433 74 59 74C59.3568 74 59.7094 73.9256 60.0346 73.7816C84.3703 63.1652 81.9495 36.5205 81.9215 36.2505Z" fill="url(#paint2_linear_2_7411)"/>
<path d="M77.4412 38.6882L77.4408 38.6838C77.4301 38.5764 77.3922 38.473 77.3299 38.3831L78.563 37.5289L77.3299 38.3831C77.2677 38.2932 77.1829 38.2197 77.0831 38.1702L77.0813 38.1693L59.7976 29.5702L59.7971 29.57C59.7049 29.5241 59.6028 29.5 59.4989 29.5C59.3951 29.5 59.2929 29.5241 59.2007 29.57L59.2003 29.5702L41.9193 38.168C41.919 38.1681 41.9187 38.1682 41.9184 38.1684C41.8183 38.2186 41.7334 38.2927 41.6709 38.3831C41.6082 38.4738 41.5699 38.5781 41.559 38.6863L41.5587 38.6896M77.4412 38.6882L41.5587 38.6896L41.5587 38.6896M77.4412 38.6882L77.4413 38.6897C77.446 38.7435 77.5667 40.1266 77.4477 42.3111C77.3258 44.5476 76.954 47.5975 75.9642 50.9073C73.9903 57.5083 69.5816 65.0988 59.7701 69.4405L59.7627 69.4438C59.6804 69.4808 59.5908 69.5 59.5 69.5C59.4092 69.5 59.3196 69.4808 59.2373 69.4438L59.2298 69.4405M77.4412 38.6882L59.2298 69.4405M41.5587 38.6896C41.5587 38.6892 41.5586 38.6899 41.5585 38.6915M41.5587 38.6896L41.5585 38.6915M59.2298 69.4405C49.4185 65.0988 45.0097 57.5079 43.0358 50.9066M59.2298 69.4405L43.0358 50.9066M43.0358 50.9066C42.046 47.5965 41.6742 44.5466 41.5523 42.3102M43.0358 50.9066L41.5523 42.3102M41.5523 42.3102C41.4336 40.1321 41.5533 38.7514 41.5585 38.6915M41.5523 42.3102L41.5585 38.6915" stroke="#FFC530" stroke-width="3"/>
<path d="M75.4458 38.9476L75.4462 38.952C75.4462 38.9515 75.4462 38.9522 75.4464 38.9539C75.4513 39.0118 75.5609 40.2909 75.4518 42.3076C75.3396 44.3827 74.9973 47.2121 74.0863 50.2822C72.2695 56.4051 68.2154 63.4344 59.1987 67.4553L59.1912 67.4587C59.131 67.486 59.0658 67.5 59 67.5C58.9342 67.5 58.869 67.486 58.8088 67.4587L58.8012 67.4553C49.7846 63.4344 45.7305 56.4046 43.9137 50.2815C42.0893 44.1329 42.5518 38.9736 42.5536 38.9534L42.5536 38.9534L42.554 38.9501C42.5625 38.865 42.5923 38.7837 42.6403 38.7138C42.6881 38.6442 42.7522 38.5882 42.8265 38.5505C42.8268 38.5504 42.8271 38.5502 42.8274 38.5501L58.7789 30.5523L58.7793 30.5521C58.8477 30.5178 58.9229 30.5 58.999 30.5C59.0751 30.5 59.1503 30.5178 59.2187 30.5521L59.2191 30.5523L75.1734 38.5515L75.1751 38.5524C75.2491 38.5893 75.313 38.6448 75.3605 38.7138L76.5966 37.8641L75.3605 38.7139C75.408 38.783 75.4375 38.8634 75.4458 38.9476ZM59.8097 68.8253C78.855 60.3322 76.9605 39.0164 76.9385 38.8004H41.0615C41.0395 39.0144 39.145 60.3322 58.1903 68.8253C58.4448 68.9404 58.7208 69 59 69C59.2792 69 59.5552 68.9404 59.8097 68.8253Z" stroke="black" stroke-width="3"/>
<path d="M51 46.6587L56.9188 52L68 42" stroke="black" stroke-width="3"/>
</g>
<defs>
<filter id="filter0_d_2_7411" x="0" y="0" width="118" height="118" filterUnits="userSpaceOnUse" color-interpolation-filters="sRGB">
<feFlood flood-opacity="0" result="BackgroundImageFix"/>
<feColorMatrix in="SourceAlpha" type="matrix" values="0 0 0 0 0 0 0 0 0 0 0 0 0 0 0 0 0 0 127 0" result="hardAlpha"/>
<feMorphology radius="6" operator="erode" in="SourceAlpha" result="effect1_dropShadow_2_7411"/>
<feOffset dy="10"/>
<feGaussianBlur stdDeviation="15"/>
<feColorMatrix type="matrix" values="0 0 0 0 0.1375 0 0 0 0 0.0965937 0 0 0 0 0.0171875 0 0 0 0.15 0"/>
<feBlend mode="normal" in2="BackgroundImageFix" result="effect1_dropShadow_2_7411"/>
<feBlend mode="normal" in="SourceGraphic" in2="effect1_dropShadow_2_7411" result="shape"/>
</filter>
<radialGradient id="paint0_radial_2_7411" cx="0" cy="0" r="1" gradientUnits="userSpaceOnUse" gradientTransform="translate(63.6 60.9048) rotate(115.097) scale(28.9208 32.4264)">
<stop stop-color="#FF8A1E"/>
<stop offset="1" stop-color="#EF4141"/>
</radialGradient>
<radialGradient id="paint1_radial_2_7411" cx="0" cy="0" r="1" gradientUnits="userSpaceOnUse" gradientTransform="translate(58.5132 49.5952) rotate(-154.758) scale(55.8338 69.7166)">
<stop stop-color="#FFA901"/>
<stop offset="1" stop-color="#FFC701" stop-opacity="0"/>
</radialGradient>
<linearGradient id="paint2_linear_2_7411" x1="74.2595" y1="24" x2="33.5645" y2="94.338" gradientUnits="userSpaceOnUse">
<stop stop-color="#FFDF35"/>
<stop offset="1" stop-color="#FF8A01" stop-opacity="0"/>
</linearGradient>
</defs>
</svg>
