<svg width="106" height="32" viewBox="0 0 106 32" fill="none" xmlns="http://www.w3.org/2000/svg">
<rect width="106" height="32" rx="16" fill="url(#paint0_linear_1112_515)"/>
<path d="M20.88 21.14C20.1333 21.14 19.438 21.0187 18.794 20.776C18.1593 20.524 17.604 20.174 17.128 19.726C16.6613 19.2687 16.2973 18.732 16.036 18.116C15.7747 17.5 15.644 16.828 15.644 16.1C15.644 15.372 15.7747 14.7 16.036 14.084C16.2973 13.468 16.666 12.936 17.142 12.488C17.618 12.0307 18.1733 11.6807 18.808 11.438C19.4427 11.186 20.138 11.06 20.894 11.06C21.6967 11.06 22.4293 11.2 23.092 11.48C23.7547 11.7507 24.3147 12.1567 24.772 12.698L23.596 13.804C23.2413 13.4213 22.8447 13.1367 22.406 12.95C21.9673 12.754 21.4913 12.656 20.978 12.656C20.4647 12.656 19.9933 12.74 19.564 12.908C19.144 13.076 18.7753 13.314 18.458 13.622C18.15 13.93 17.9073 14.294 17.73 14.714C17.562 15.134 17.478 15.596 17.478 16.1C17.478 16.604 17.562 17.066 17.73 17.486C17.9073 17.906 18.15 18.27 18.458 18.578C18.7753 18.886 19.144 19.124 19.564 19.292C19.9933 19.46 20.4647 19.544 20.978 19.544C21.4913 19.544 21.9673 19.4507 22.406 19.264C22.8447 19.068 23.2413 18.774 23.596 18.382L24.772 19.502C24.3147 20.034 23.7547 20.44 23.092 20.72C22.4293 21 21.692 21.14 20.88 21.14ZM26.2658 21V13.524H29.9198C30.8252 13.524 31.5345 13.692 32.0478 14.028C32.5705 14.364 32.8318 14.84 32.8318 15.456C32.8318 16.0627 32.5892 16.5387 32.1038 16.884C31.6185 17.22 30.9745 17.388 30.1718 17.388L30.3818 16.954C31.2872 16.954 31.9592 17.122 32.3978 17.458C32.8458 17.7847 33.0698 18.2653 33.0698 18.9C33.0698 19.5627 32.8225 20.0807 32.3278 20.454C31.8332 20.818 31.0818 21 30.0738 21H26.2658ZM27.9318 19.726H29.9338C30.4098 19.726 30.7692 19.6513 31.0118 19.502C31.2545 19.3433 31.3758 19.1053 31.3758 18.788C31.3758 18.452 31.2638 18.2047 31.0398 18.046C30.8158 17.8873 30.4658 17.808 29.9898 17.808H27.9318V19.726ZM27.9318 16.646H29.7658C30.2138 16.646 30.5498 16.5667 30.7738 16.408C31.0072 16.24 31.1238 16.0067 31.1238 15.708C31.1238 15.4 31.0072 15.1713 30.7738 15.022C30.5498 14.8727 30.2138 14.798 29.7658 14.798H27.9318V16.646ZM39.6798 21V18.452L39.9318 18.746H37.6918C36.6651 18.746 35.8578 18.5313 35.2698 18.102C34.6911 17.6633 34.4018 17.0333 34.4018 16.212C34.4018 15.3347 34.7098 14.6673 35.3258 14.21C35.9511 13.7527 36.7818 13.524 37.8178 13.524H41.2478V21H39.6798ZM34.3038 21L36.3198 18.144H38.1118L36.1798 21H34.3038ZM39.6798 17.892V14.532L39.9318 14.994H37.8738C37.3325 14.994 36.9125 15.0967 36.6138 15.302C36.3245 15.498 36.1798 15.82 36.1798 16.268C36.1798 17.108 36.7258 17.528 37.8178 17.528H39.9318L39.6798 17.892ZM45.8721 21.126C46.5627 21.126 47.1741 21.028 47.7061 20.832C48.2474 20.636 48.6721 20.3653 48.9801 20.02C49.2881 19.6653 49.4421 19.2593 49.4421 18.802C49.4421 18.2327 49.2041 17.7847 48.7281 17.458C48.2521 17.122 47.5987 16.954 46.7681 16.954L46.7121 17.332C47.1974 17.332 47.6267 17.2527 48.0001 17.094C48.3827 16.9353 48.6814 16.716 48.8961 16.436C49.1201 16.1467 49.2321 15.8247 49.2321 15.47C49.2321 15.0407 49.0781 14.6673 48.7701 14.35C48.4621 14.0327 48.0421 13.79 47.5101 13.622C46.9781 13.454 46.3714 13.384 45.6901 13.412C45.2421 13.4213 44.7894 13.4867 44.3321 13.608C43.8841 13.72 43.4221 13.8833 42.9461 14.098L43.3941 15.386C43.8047 15.2087 44.2061 15.0733 44.5981 14.98C44.9994 14.8867 45.3867 14.84 45.7601 14.84C46.1147 14.84 46.4181 14.8773 46.6701 14.952C46.9221 15.0173 47.1134 15.12 47.2441 15.26C47.3841 15.3907 47.4541 15.5447 47.4541 15.722C47.4541 15.8993 47.3981 16.0533 47.2861 16.184C47.1741 16.3147 47.0107 16.4127 46.7961 16.478C46.5907 16.5433 46.3387 16.576 46.0401 16.576H44.7381V17.752H46.1801C46.6561 17.752 47.0201 17.8313 47.2721 17.99C47.5334 18.1393 47.6641 18.3633 47.6641 18.662C47.6641 18.8673 47.5847 19.0493 47.4261 19.208C47.2767 19.3667 47.0621 19.488 46.7821 19.572C46.5021 19.6467 46.1661 19.684 45.7741 19.684C45.3167 19.684 44.8594 19.628 44.4021 19.516C43.9447 19.404 43.5341 19.2453 43.1701 19.04L42.6801 20.342C43.1281 20.594 43.6274 20.79 44.1781 20.93C44.7381 21.0607 45.3027 21.126 45.8721 21.126ZM55.7804 21V19.488L55.6824 19.166V16.52C55.6824 16.0067 55.5284 15.61 55.2204 15.33C54.9124 15.0407 54.4457 14.896 53.8204 14.896C53.4004 14.896 52.985 14.9613 52.5744 15.092C52.173 15.2227 51.8324 15.4047 51.5524 15.638L50.8664 14.364C51.2677 14.056 51.7437 13.8273 52.2944 13.678C52.8544 13.5193 53.433 13.44 54.0304 13.44C55.113 13.44 55.9484 13.7013 56.5364 14.224C57.1337 14.7373 57.4324 15.5353 57.4324 16.618V21H55.7804ZM53.4284 21.098C52.8684 21.098 52.3784 21.0047 51.9584 20.818C51.5384 20.622 51.2117 20.356 50.9784 20.02C50.7544 19.6747 50.6424 19.2873 50.6424 18.858C50.6424 18.438 50.7404 18.06 50.9364 17.724C51.1417 17.388 51.473 17.122 51.9304 16.926C52.3877 16.73 52.9944 16.632 53.7504 16.632H55.9204V17.794H53.8764C53.279 17.794 52.8777 17.892 52.6724 18.088C52.467 18.2747 52.3644 18.508 52.3644 18.788C52.3644 19.1053 52.4904 19.3573 52.7424 19.544C52.9944 19.7307 53.3444 19.824 53.7924 19.824C54.2217 19.824 54.6044 19.726 54.9404 19.53C55.2857 19.334 55.533 19.0447 55.6824 18.662L55.9764 19.712C55.8084 20.1507 55.505 20.4913 55.0664 20.734C54.637 20.9767 54.091 21.098 53.4284 21.098ZM61.1519 21V14.588L61.5579 15.008H58.5199V13.524H65.5199V15.008H62.4959L62.9019 14.588V21H61.1519ZM70.5413 15.988C71.5026 15.988 72.2353 16.2027 72.7393 16.632C73.2433 17.0613 73.4953 17.668 73.4953 18.452C73.4953 19.264 73.2153 19.8987 72.6553 20.356C72.0953 20.804 71.3066 21.0233 70.2893 21.014L66.7893 21V13.524H68.5393V15.974L70.5413 15.988ZM70.1353 19.726C70.6486 19.7353 71.0406 19.628 71.3113 19.404C71.5819 19.18 71.7173 18.8533 71.7173 18.424C71.7173 17.9947 71.5819 17.6867 71.3113 17.5C71.0499 17.304 70.6579 17.2013 70.1353 17.192L68.5393 17.178V19.712L70.1353 19.726ZM78.4354 21.098C77.6514 21.098 76.9514 20.9347 76.3354 20.608C75.7288 20.272 75.2528 19.8147 74.9074 19.236C74.5621 18.6573 74.3894 17.9993 74.3894 17.262C74.3894 16.5153 74.5621 15.8573 74.9074 15.288C75.2528 14.7093 75.7288 14.2567 76.3354 13.93C76.9514 13.6033 77.6514 13.44 78.4354 13.44C79.1634 13.44 79.8028 13.5893 80.3534 13.888C80.9134 14.1773 81.3381 14.6067 81.6274 15.176L80.2834 15.96C80.0594 15.6053 79.7841 15.344 79.4574 15.176C79.1401 15.008 78.7948 14.924 78.4214 14.924C77.9921 14.924 77.6048 15.0173 77.2594 15.204C76.9141 15.3907 76.6434 15.6613 76.4474 16.016C76.2514 16.3613 76.1534 16.7767 76.1534 17.262C76.1534 17.7473 76.2514 18.1673 76.4474 18.522C76.6434 18.8673 76.9141 19.1333 77.2594 19.32C77.6048 19.5067 77.9921 19.6 78.4214 19.6C78.7948 19.6 79.1401 19.516 79.4574 19.348C79.7841 19.18 80.0594 18.9187 80.2834 18.564L81.6274 19.348C81.3381 19.908 80.9134 20.342 80.3534 20.65C79.8028 20.9487 79.1634 21.098 78.4354 21.098ZM87.7091 21V18.452L87.9611 18.746H85.7211C84.6944 18.746 83.8871 18.5313 83.2991 18.102C82.7204 17.6633 82.4311 17.0333 82.4311 16.212C82.4311 15.3347 82.7391 14.6673 83.3551 14.21C83.9804 13.7527 84.8111 13.524 85.8471 13.524H89.2771V21H87.7091ZM82.3331 21L84.3491 18.144H86.1411L84.2091 21H82.3331ZM87.7091 17.892V14.532L87.9611 14.994H85.9031C85.3618 14.994 84.9418 15.0967 84.6431 15.302C84.3538 15.498 84.2091 15.82 84.2091 16.268C84.2091 17.108 84.7551 17.528 85.8471 17.528H87.9611L87.7091 17.892Z" fill="white"/>
<defs>
<linearGradient id="paint0_linear_1112_515" x1="106" y1="16" x2="-2.70383e-08" y2="16" gradientUnits="userSpaceOnUse">
<stop stop-color="#FFCC00"/>
<stop offset="1" stop-color="#FFA300"/>
</linearGradient>
</defs>
</svg>
